# xmcd CD database file
#
# Track frame offsets:
#	150
#	19519
#	45718
#	64787
#	83011
#	105971
#	125791
#	146868
#	171648
#	190582
#	217263
#	238513
#	255854
#	278999
#	297788
#	317931
#
# Disc length: 4407 seconds
#
# Revision: 0
# Processed by: cddbd v1.5PL3 Copyright (c) Steve Scherf et al.
# Submitted via: CDex 1.51
#
DISCID=ed113510
DTITLE=Various Artist - Knuts teaching CD - beginners V
DYEAR=1900
DGENRE=Salsa
TTITLE0=Juan Luis Guerra - Bachata Rosa (27 tpm)
TTITLE1=Celia Cruz - Por Si Acaso No Regreso (31 tpm)
TTITLE2=Celia Cruz - Déjenme vivir (39 tpm)
TTITLE3=Willy Chirino - Bongo (40 tpm)
TTITLE4=Ray Barreto - Acid (40 tpm)
TTITLE5=Orishas - 537 C.U.B.A. (43 tpm)
TTITLE6=Adalberto Santiago - Mi Guajira - Se Va Mi Querer (44 tpm)
TTITLE7=Jimmy Bosch - Otra Oportunidad (45 tpm)
TTITLE8=Isidaro Infante - El Pito (46 tpm)
TTITLE9=Rick Trevino - El Tira Y Jala (46 tpm)
TTITLE10=Gloria Estefan - Hablemos El Mismo Idioma (47 tpm)
TTITLE11=Gloria Estefan - Lejos De Ti (Far From You) (48 tpm)
TTITLE12=Africando - Aicha (48 tpm)
TTITLE13=Yuri Buenaventura - Salsa Raï (49 tpm)
TTITLE14=Yuri Buenaventura - Salsa (51 tpm)
TTITLE15=La Lupe - Fever
EXTD=
EXTT0=
EXTT1=
EXTT2=
EXTT3=
EXTT4=
EXTT5=
EXTT6=
EXTT7=
EXTT8=
EXTT9=
EXTT10=
EXTT11=
EXTT12=
EXTT13=
EXTT14=
EXTT15=
PLAYORDER=
